<svg version="1.1" id="Layer_1" xmlns="http://www.w3.org/2000/svg" xmlns:xlink="http://www.w3.org/1999/xlink" x="0px" y="0px"
	 width="100%" viewBox="0 0 1022 534" enable-background="new 0 0 1022 534" xml:space="preserve">
<path fill="#FEFEFE" opacity="1.000000" stroke="none" 
	d="
M688.000000,535.000000 
	C458.666656,535.000000 229.833328,535.000000 1.000000,535.000000 
	C1.000000,357.000000 1.000000,179.000000 1.000000,1.000000 
	C341.666656,1.000000 682.333313,1.000000 1023.000000,1.000000 
	C1023.000000,179.000000 1023.000000,357.000000 1023.000000,535.000000 
	C911.500000,535.000000 800.000000,535.000000 688.000000,535.000000 
M737.900757,257.892670 
	C737.900757,257.892670 737.732117,257.706116 737.886108,257.037445 
	C745.413696,245.466339 753.158569,234.029861 760.427429,222.298462 
	C780.706360,189.569534 798.984497,155.863510 809.443665,118.490150 
	C814.661499,99.845398 818.951538,81.025345 816.934814,61.469574 
	C815.829346,50.749710 812.209290,41.077972 801.033081,36.974850 
	C790.425171,33.080353 781.472717,37.026096 774.808655,45.245071 
	C769.400146,51.915489 764.493225,59.199783 760.569153,66.831558 
	C741.029846,104.833344 727.572632,145.211502 717.209045,186.455276 
	C705.835388,231.719070 696.242249,277.435791 686.231689,323.033813 
	C682.383301,340.563049 679.502686,358.305420 676.223938,375.958618 
	C675.063599,382.206512 678.154724,387.243103 683.853027,388.616241 
	C689.081726,389.876221 694.142212,386.542694 695.889343,380.710693 
	C696.241211,379.536377 696.674561,378.386475 697.232178,376.750519 
	C703.745728,386.129700 711.777039,392.691956 722.102905,395.973785 
	C741.955627,402.283569 762.323364,394.589142 775.114624,376.004730 
	C787.995117,357.290833 794.493713,336.389465 795.499939,313.798798 
	C796.238403,297.222351 794.103516,281.183258 784.168518,267.198914 
	C777.604004,257.958740 768.690308,252.225891 757.106812,253.220718 
	C750.670776,253.773453 744.411926,256.389496 737.900757,257.892670 
M676.878296,37.048115 
	C667.392273,31.862013 658.420959,33.205029 650.541687,40.058987 
	C646.464539,43.605598 642.454590,47.812000 640.007080,52.544147 
	C631.397766,69.189781 622.437378,85.776245 615.497253,103.139412 
	C596.406494,150.901657 582.775146,200.439209 573.436279,250.910202 
	C568.953552,275.136505 559.477112,295.519653 542.809143,313.070892 
	C527.925232,328.743591 513.248291,344.618500 498.101624,360.032288 
	C494.065979,364.139130 488.640991,366.880707 483.853912,370.249115 
	C483.305450,369.858185 482.757019,369.467224 482.208588,369.076294 
	C484.297485,361.265747 485.868866,353.270782 488.574066,345.679871 
	C496.139343,324.451324 506.823792,304.761810 518.989807,285.818848 
	C520.938171,282.785095 522.430359,278.828308 522.418884,275.303802 
	C522.398315,268.983032 518.093445,264.396606 512.560425,263.014435 
	C506.396606,261.474640 501.214172,263.320801 497.271545,268.713013 
	C483.954620,286.926086 473.184448,306.547180 464.901215,327.537781 
	C460.060760,339.804108 456.134857,352.291748 455.230927,365.558258 
	C454.112610,381.972351 462.369324,394.634247 476.191132,397.424042 
	C483.731628,398.946045 490.725098,396.945160 497.326050,393.416199 
	C511.826782,385.663910 523.001465,373.968201 533.876465,362.012848 
	C540.990234,354.192413 547.673096,345.980072 555.171143,337.216064 
	C554.880066,339.493378 554.770508,340.780609 554.545166,342.047211 
	C552.507080,353.504608 550.424438,364.954193 548.407410,376.415283 
	C547.501038,381.565948 549.809204,386.000336 554.247375,387.899292 
	C558.512878,389.724335 563.790527,388.432526 566.180847,384.652740 
	C567.476440,382.604034 568.216248,380.203888 569.309631,377.729553 
	C569.809143,378.312225 570.166443,378.660980 570.445312,379.063934 
	C587.323914,403.449158 619.866089,405.115234 641.001221,383.665497 
	C651.026489,373.491028 657.675476,361.291412 662.706909,348.189850 
	C671.045654,326.476135 674.527100,304.189880 668.034485,281.306427 
	C662.168152,260.630585 645.507629,249.869370 626.313293,254.197205 
	C621.766296,255.222427 617.464172,257.333862 612.413269,259.177917 
	C613.199829,257.890289 613.544434,257.151855 614.041748,256.536926 
	C656.351929,204.219193 678.433350,143.541382 687.569092,77.635300 
	C689.233032,65.631805 689.894653,53.343300 683.031677,41.537708 
	C683.820312,39.339436 684.608948,37.141167 685.397644,34.942894 
	C684.988586,34.743095 684.579590,34.543297 684.170593,34.343494 
	C681.970215,35.300014 679.769836,36.256531 676.878296,37.048115 
M336.761261,425.309296 
	C313.863495,427.202148 290.934296,428.780548 268.076019,431.067993 
	C239.940292,433.883514 211.906036,437.608734 184.549469,445.092224 
	C173.162842,448.207031 161.872910,451.786774 152.549896,459.544098 
	C145.762634,465.191467 142.312607,472.413116 144.242996,481.197083 
	C145.984131,489.119781 152.321655,492.563446 159.589539,494.493378 
	C161.994324,495.131958 164.442154,495.825287 166.904526,495.993988 
	C180.511185,496.926300 194.140579,498.572083 207.739929,498.382019 
	C261.173645,497.635315 314.595184,496.013702 368.028870,495.265594 
	C407.666931,494.710632 447.320099,494.656464 486.960327,495.034454 
	C515.760986,495.309082 544.576599,496.169189 573.339417,497.658142 
	C602.595215,499.172607 631.800720,501.697357 661.015381,503.946198 
	C671.634033,504.763580 682.201904,506.274567 692.825684,506.965149 
	C695.021423,507.107849 698.313843,505.577637 699.372192,503.793213 
	C700.455750,501.966583 700.284546,498.281891 699.064392,496.512543 
	C697.816345,494.702820 694.703430,493.537170 692.279297,493.276855 
	C656.695862,489.456329 621.146912,485.124512 585.479187,482.321259 
	C522.197388,477.347778 458.747681,475.751312 395.284027,475.556488 
	C338.636383,475.382568 281.986847,475.948822 225.338287,475.916138 
	C209.502487,475.907013 193.667236,474.933624 177.831741,474.402557 
	C177.800842,473.965668 177.769958,473.528778 177.739059,473.091888 
	C178.757599,472.678680 179.741135,472.095062 180.799896,471.877563 
	C199.974579,467.938416 218.995422,462.422791 238.373901,460.475189 
	C279.098450,456.382263 319.970398,453.190674 360.859344,451.458893 
	C401.266571,449.747528 441.770935,449.828827 482.229584,449.975861 
	C521.694885,450.119293 561.192871,450.522705 600.610535,452.286285 
	C655.496765,454.741943 710.385193,457.761169 765.152100,462.071289 
	C807.604980,465.412292 849.883057,471.013885 892.216858,475.804596 
	C903.308777,477.059784 912.600647,471.038177 913.969910,460.936798 
	C915.438171,450.105957 908.675110,441.589142 897.352722,440.125671 
	C889.097168,439.058563 880.849792,437.834839 872.560303,437.139069 
	C830.586304,433.615845 788.628845,429.822083 746.610962,426.911560 
	C677.315247,422.111511 607.885864,420.727936 538.443298,420.198334 
	C516.123840,420.028137 493.788177,419.922607 471.481659,420.554138 
	C426.880127,421.816772 382.293610,423.609009 336.761261,425.309296 
M207.086700,298.403870 
	C198.732925,329.361359 180.832306,352.171295 150.459198,364.036407 
	C142.665359,367.080994 134.444946,368.099609 125.059052,365.322083 
	C127.053200,360.857697 128.365753,356.526123 130.725174,352.870209 
	C143.133850,333.642975 158.788376,317.903076 179.999298,308.359467 
	C184.710770,306.239624 187.084320,301.925171 186.330231,297.125732 
	C185.562515,292.239532 181.840103,288.597412 176.848450,288.452271 
	C174.598221,288.386871 172.241394,289.045044 170.067123,289.774750 
	C151.831528,295.894623 136.852707,307.106750 123.202744,320.255341 
	C113.303329,329.791107 104.586365,340.248779 99.819893,353.432800 
	C92.836426,372.749023 101.146736,389.489563 120.834602,395.180817 
	C135.207825,399.335785 149.611710,398.100861 163.561691,393.360779 
	C198.210464,381.587341 221.669785,357.505798 236.969604,324.942200 
	C244.840912,308.189209 248.297256,290.496460 245.598648,272.011444 
	C242.095734,248.017090 228.161880,231.619156 207.174301,220.573761 
	C186.557648,209.723557 164.066574,204.358917 141.924347,197.846161 
	C124.449440,192.706223 106.884499,187.455841 90.119522,180.438812 
	C74.132118,173.747177 73.297409,167.768173 83.389313,153.391479 
	C93.650459,138.773697 106.946350,127.187668 121.138306,116.597939 
	C147.651657,96.814255 176.236679,81.058693 209.037979,74.729263 
	C219.176208,72.772957 229.839661,73.066399 240.252853,73.185600 
	C246.414185,73.256119 247.525543,75.260857 245.853012,81.254822 
	C244.523926,86.017975 243.005936,90.998665 240.330048,95.065781 
	C231.845963,107.960854 222.965973,120.608963 213.859467,133.075272 
	C209.395737,139.185852 208.677338,144.903564 213.032959,149.157120 
	C217.319855,153.343567 223.174484,153.341339 228.621414,148.436218 
	C236.892975,140.987427 245.251678,133.558868 252.809677,125.413147 
	C262.800537,114.645447 271.434448,102.805305 276.009155,88.528778 
	C283.268494,65.874069 273.007172,46.537407 250.124344,39.998783 
	C232.288986,34.902439 214.173325,35.348373 196.170624,38.512730 
	C153.883453,45.945618 116.222992,63.934795 82.291718,89.918129 
	C65.674713,102.642838 50.704384,117.063309 40.375454,135.563965 
	C29.373789,155.269577 26.312555,175.402054 39.357346,195.465591 
	C47.625641,208.182648 59.987579,216.018646 73.610786,221.980286 
	C94.601196,231.165848 116.956993,235.684937 139.081314,241.004135 
	C156.515121,245.195618 174.040298,249.080307 190.305435,257.081726 
	C201.452148,262.565247 207.900986,271.118042 208.259430,283.663635 
	C208.391312,288.279938 207.620178,292.922028 207.086700,298.403870 
M936.399902,366.969116 
	C945.739014,358.714264 955.552429,350.928619 964.298584,342.087128 
	C975.501526,330.762115 984.626709,317.827728 988.411682,301.927795 
	C992.136841,286.278809 988.837463,272.360870 976.701782,261.446930 
	C965.211243,251.113266 951.724976,249.957169 937.453186,254.716629 
	C908.036682,264.526672 883.077087,299.472656 882.914001,330.505249 
	C882.857178,341.328857 884.891235,351.576324 889.389343,361.664276 
	C879.222595,366.159210 869.278015,370.191559 858.179993,370.150238 
	C845.450989,370.102844 836.542053,363.761841 835.359619,351.155090 
	C834.142029,338.173431 835.134949,324.971649 835.460938,311.873657 
	C835.503113,310.178192 837.176819,308.398560 838.372375,306.875793 
	C851.615112,290.007172 865.977661,273.904388 877.990112,256.205017 
	C910.330017,208.554916 929.416382,155.138855 942.865845,99.565689 
	C946.072266,86.316635 948.150635,72.778870 946.083313,58.992039 
	C943.751892,43.444462 932.392334,34.745998 918.120056,38.035862 
	C907.249573,40.541588 899.952209,48.182133 893.484802,56.571156 
	C879.255676,75.028214 869.240662,95.886185 860.127380,117.148254 
	C836.009521,173.417572 818.143982,231.546341 809.283997,292.252014 
	C806.495178,311.360321 803.980286,330.478851 805.928162,349.927002 
	C809.230530,382.899841 834.283936,402.718506 867.175476,398.292603 
	C880.211975,396.538391 892.304504,392.129486 904.033447,386.522125 
	C906.735535,385.230316 908.521790,385.230804 911.050476,387.121582 
	C922.952820,396.021179 936.333984,399.940857 950.968567,396.237274 
	C975.440735,390.044037 988.178711,372.103027 995.778564,349.560760 
	C996.942200,346.109406 995.602661,342.810333 991.908264,341.378082 
	C988.427124,340.028442 985.359070,340.936218 983.219788,344.169281 
	C981.292908,347.081421 979.549622,350.124115 977.494202,352.940552 
	C970.804321,362.107239 962.869568,369.790222 951.765991,373.400116 
	C944.685181,375.702148 937.966553,375.081207 931.293579,370.685760 
	C933.129822,369.341309 934.463745,368.364624 936.399902,366.969116 
M317.128510,359.651672 
	C313.085175,362.278198 309.184509,365.165955 304.965057,367.469910 
	C298.659790,370.912811 292.105865,373.812225 284.587524,373.079559 
	C277.017151,372.341797 272.705597,367.847504 272.925842,360.296326 
	C273.026764,356.836456 273.480042,353.279816 274.459198,349.969910 
	C280.991974,327.886749 293.755310,309.635468 309.845978,293.537598 
	C317.746063,285.633942 326.462036,278.934174 338.891205,276.035522 
	C339.279510,281.396820 339.768890,286.274811 339.953369,291.164337 
	C340.198303,297.656525 344.483704,302.904724 350.565491,303.807190 
	C356.962646,304.756470 362.782135,300.947906 364.366516,294.311249 
	C366.401550,285.786835 366.641876,277.191040 364.278748,268.638000 
	C359.984222,253.094391 347.204590,244.399307 331.375885,247.495407 
	C323.507599,249.034439 315.554779,251.733902 308.493835,255.506256 
	C288.119873,266.391174 273.531982,283.425568 261.535126,302.772186 
	C252.160614,317.889893 245.059372,333.944550 243.669357,351.973572 
	C242.572327,366.202728 245.104492,379.444733 256.777649,389.000244 
	C271.252350,400.849091 287.298828,400.961548 303.556793,393.255768 
	C321.291290,384.850098 333.604980,370.489563 344.297333,354.521027 
	C346.699860,350.932983 346.816711,347.541992 343.546112,344.719849 
	C340.149475,341.789093 336.909454,343.028198 333.778290,345.769073 
	C328.522278,350.369812 323.073944,354.750824 317.128510,359.651672 
M416.441559,330.016296 
	C421.279175,321.701996 425.508057,312.951141 431.088806,305.169861 
	C440.878510,291.519989 453.187805,281.774597 471.490570,282.893555 
	C477.347015,283.251556 482.243103,278.525238 483.051880,273.123932 
	C484.034241,266.563721 480.892853,260.291168 474.669159,259.221161 
	C467.073120,257.915161 459.115936,256.950287 451.522156,257.766235 
	C436.901459,259.337189 425.197235,267.344513 414.846466,277.434540 
	C413.654755,278.596222 412.150665,279.437408 409.798737,281.150055 
	C411.859314,271.866882 408.020782,265.295319 401.093475,263.958282 
	C393.437897,262.480621 387.523499,266.618439 385.967377,274.581085 
	C384.757355,280.772583 383.571747,286.969055 382.411316,293.170044 
	C377.063660,321.746918 371.685944,350.318359 366.416443,378.909668 
	C364.945770,386.889221 369.440979,394.326843 377.050323,397.095612 
	C386.621857,400.578308 395.606628,395.075836 398.981171,384.180206 
	C404.519287,366.299042 410.367493,348.513947 416.441559,330.016296 
M515.778564,255.975555 
	C526.809082,260.950562 537.140076,257.175415 541.223389,246.677628 
	C544.921570,237.169983 539.912415,226.664352 530.156006,223.466171 
	C521.888489,220.756058 513.007996,224.321625 508.906006,231.998276 
	C504.420868,240.391861 506.624359,248.790314 515.778564,255.975555 
z"/>
<path fill="#1B1713" opacity="1.000000" stroke="none" 
	d="
M337.231079,425.245911 
	C382.293610,423.609009 426.880127,421.816772 471.481659,420.554138 
	C493.788177,419.922607 516.123840,420.028137 538.443298,420.198334 
	C607.885864,420.727936 677.315247,422.111511 746.610962,426.911560 
	C788.628845,429.822083 830.586304,433.615845 872.560303,437.139069 
	C880.849792,437.834839 889.097168,439.058563 897.352722,440.125671 
	C908.675110,441.589142 915.438171,450.105957 913.969910,460.936798 
	C912.600647,471.038177 903.308777,477.059784 892.216858,475.804596 
	C849.883057,471.013885 807.604980,465.412292 765.152100,462.071289 
	C710.385193,457.761169 655.496765,454.741943 600.610535,452.286285 
	C561.192871,450.522705 521.694885,450.119293 482.229584,449.975861 
	C441.770935,449.828827 401.266571,449.747528 360.859344,451.458893 
	C319.970398,453.190674 279.098450,456.382263 238.373901,460.475189 
	C218.995422,462.422791 199.974579,467.938416 180.799896,471.877563 
	C179.741135,472.095062 178.757599,472.678680 177.739059,473.091888 
	C177.769958,473.528778 177.800842,473.965668 177.831741,474.402557 
	C193.667236,474.933624 209.502487,475.907013 225.338287,475.916138 
	C281.986847,475.948822 338.636383,475.382568 395.284027,475.556488 
	C458.747681,475.751312 522.197388,477.347778 585.479187,482.321259 
	C621.146912,485.124512 656.695862,489.456329 692.279297,493.276855 
	C694.703430,493.537170 697.816345,494.702820 699.064392,496.512543 
	C700.284546,498.281891 700.455750,501.966583 699.372192,503.793213 
	C698.313843,505.577637 695.021423,507.107849 692.825684,506.965149 
	C682.201904,506.274567 671.634033,504.763580 661.015381,503.946198 
	C631.800720,501.697357 602.595215,499.172607 573.339417,497.658142 
	C544.576599,496.169189 515.760986,495.309082 486.960327,495.034454 
	C447.320099,494.656464 407.666931,494.710632 368.028870,495.265594 
	C314.595184,496.013702 261.173645,497.635315 207.739929,498.382019 
	C194.140579,498.572083 180.511185,496.926300 166.904526,495.993988 
	C164.442154,495.825287 161.994324,495.131958 159.589539,494.493378 
	C152.321655,492.563446 145.984131,489.119781 144.242996,481.197083 
	C142.312607,472.413116 145.762634,465.191467 152.549896,459.544098 
	C161.872910,451.786774 173.162842,448.207031 184.549469,445.092224 
	C211.906036,437.608734 239.940292,433.883514 268.076019,431.067993 
	C290.934296,428.780548 313.863495,427.202148 337.231079,425.245911 
z"/>
<path fill="#1B1612" opacity="1.000000" stroke="none" 
	d="
M207.173813,297.978119 
	C207.620178,292.922028 208.391312,288.279938 208.259430,283.663635 
	C207.900986,271.118042 201.452148,262.565247 190.305435,257.081726 
	C174.040298,249.080307 156.515121,245.195618 139.081314,241.004135 
	C116.956993,235.684937 94.601196,231.165848 73.610786,221.980286 
	C59.987579,216.018646 47.625641,208.182648 39.357346,195.465591 
	C26.312555,175.402054 29.373789,155.269577 40.375454,135.563965 
	C50.704384,117.063309 65.674713,102.642838 82.291718,89.918129 
	C116.222992,63.934795 153.883453,45.945618 196.170624,38.512730 
	C214.173325,35.348373 232.288986,34.902439 250.124344,39.998783 
	C273.007172,46.537407 283.268494,65.874069 276.009155,88.528778 
	C271.434448,102.805305 262.800537,114.645447 252.809677,125.413147 
	C245.251678,133.558868 236.892975,140.987427 228.621414,148.436218 
	C223.174484,153.341339 217.319855,153.343567 213.032959,149.157120 
	C208.677338,144.903564 209.395737,139.185852 213.859467,133.075272 
	C222.965973,120.608963 231.845963,107.960854 240.330048,95.065781 
	C243.005936,90.998665 244.523926,86.017975 245.853012,81.254822 
	C247.525543,75.260857 246.414185,73.256119 240.252853,73.185600 
	C229.839661,73.066399 219.176208,72.772957 209.037979,74.729263 
	C176.236679,81.058693 147.651657,96.814255 121.138306,116.597939 
	C106.946350,127.187668 93.650459,138.773697 83.389313,153.391479 
	C73.297409,167.768173 74.132118,173.747177 90.119522,180.438812 
	C106.884499,187.455841 124.449440,192.706223 141.924347,197.846161 
	C164.066574,204.358917 186.557648,209.723557 207.174301,220.573761 
	C228.161880,231.619156 242.095734,248.017090 245.598648,272.011444 
	C248.297256,290.496460 244.840912,308.189209 236.969604,324.942200 
	C221.669785,357.505798 198.210464,381.587341 163.561691,393.360779 
	C149.611710,398.100861 135.207825,399.335785 120.834602,395.180817 
	C101.146736,389.489563 92.836426,372.749023 99.819893,353.432800 
	C104.586365,340.248779 113.303329,329.791107 123.202744,320.255341 
	C136.852707,307.106750 151.831528,295.894623 170.067123,289.774750 
	C172.241394,289.045044 174.598221,288.386871 176.848450,288.452271 
	C181.840103,288.597412 185.562515,292.239532 186.330231,297.125732 
	C187.084320,301.925171 184.710770,306.239624 179.999298,308.359467 
	C158.788376,317.903076 143.133850,333.642975 130.725174,352.870209 
	C128.365753,356.526123 127.053200,360.857697 125.059052,365.322083 
	C134.444946,368.099609 142.665359,367.080994 150.459198,364.036407 
	C180.832306,352.171295 198.732925,329.361359 207.173813,297.978119 
z"/>
<path fill="#191714" opacity="1.000000" stroke="none" 
	d="
M936.098816,367.178528 
	C934.463745,368.364624 933.129822,369.341309 931.293579,370.685760 
	C937.966553,375.081207 944.685181,375.702148 951.765991,373.400116 
	C962.869568,369.790222 970.804321,362.107239 977.494202,352.940552 
	C979.549622,350.124115 981.292908,347.081421 983.219788,344.169281 
	C985.359070,340.936218 988.427124,340.028442 991.908264,341.378082 
	C995.602661,342.810333 996.942200,346.109406 995.778564,349.560760 
	C988.178711,372.103027 975.440735,390.044037 950.968567,396.237274 
	C936.333984,399.940857 922.952820,396.021179 911.050476,387.121582 
	C908.521790,385.230804 906.735535,385.230316 904.033447,386.522125 
	C892.304504,392.129486 880.211975,396.538391 867.175476,398.292603 
	C834.283936,402.718506 809.230530,382.899841 805.928162,349.927002 
	C803.980286,330.478851 806.495178,311.360321 809.283997,292.252014 
	C818.143982,231.546341 836.009521,173.417572 860.127380,117.148254 
	C869.240662,95.886185 879.255676,75.028214 893.484802,56.571156 
	C899.952209,48.182133 907.249573,40.541588 918.120056,38.035862 
	C932.392334,34.745998 943.751892,43.444462 946.083313,58.992039 
	C948.150635,72.778870 946.072266,86.316635 942.865845,99.565689 
	C929.416382,155.138855 910.330017,208.554916 877.990112,256.205017 
	C865.977661,273.904388 851.615112,290.007172 838.372375,306.875793 
	C837.176819,308.398560 835.503113,310.178192 835.460938,311.873657 
	C835.134949,324.971649 834.142029,338.173431 835.359619,351.155090 
	C836.542053,363.761841 845.450989,370.102844 858.179993,370.150238 
	C869.278015,370.191559 879.222595,366.159210 889.389343,361.664276 
	C884.891235,351.576324 882.857178,341.328857 882.914001,330.505249 
	C883.077087,299.472656 908.036682,264.526672 937.453186,254.716629 
	C951.724976,249.957169 965.211243,251.113266 976.701782,261.446930 
	C988.837463,272.360870 992.136841,286.278809 988.411682,301.927795 
	C984.626709,317.827728 975.501526,330.762115 964.298584,342.087128 
	C955.552429,350.928619 945.739014,358.714264 936.098816,367.178528 
M842.663025,267.989990 
	C846.287903,263.263184 850.101562,258.668060 853.506348,253.787674 
	C871.726685,227.670776 884.973999,199.032089 895.923096,169.264816 
	C906.498535,140.513504 916.233704,111.509857 920.387146,80.984177 
	C921.037109,76.207344 920.984619,71.334930 921.256897,66.506721 
	C920.649292,66.231247 920.041687,65.955765 919.434082,65.680290 
	C917.889160,67.581078 916.163940,69.364113 914.831787,71.403816 
	C910.196655,78.501328 905.178406,85.413605 901.233093,92.885887 
	C878.902161,135.179749 863.204529,180.033676 851.017517,226.146744 
	C847.375122,239.928864 844.979492,254.040482 841.842957,268.139404 
	C841.842957,268.139404 841.863770,268.369446 841.863770,268.369446 
	C841.863770,268.369446 841.972290,267.963684 842.663025,267.989990 
M939.626221,327.126129 
	C942.169006,324.492828 944.881287,322.001190 947.222107,319.199158 
	C953.745605,311.390381 959.862366,303.315002 961.590149,292.870972 
	C962.936462,284.732330 956.662537,278.541138 948.783447,280.658661 
	C945.000549,281.675293 941.162170,283.259003 937.939514,285.453247 
	C923.536682,295.259979 914.436462,308.880035 911.303040,325.994202 
	C909.977844,333.232178 909.806030,340.822693 913.780334,349.478455 
	C922.641479,341.835693 930.881226,334.728912 939.626221,327.126129 
z"/>
<path fill="#1C1611" opacity="1.000000" stroke="none" 
	d="
M682.863464,42.299049 
	C689.894653,53.343300 689.233032,65.631805 687.569092,77.635300 
	C678.433350,143.541382 656.351929,204.219193 614.041748,256.536926 
	C613.544434,257.151855 613.199829,257.890289 612.413269,259.177917 
	C617.464172,257.333862 621.766296,255.222427 626.313293,254.197205 
	C645.507629,249.869370 662.168152,260.630585 668.034485,281.306427 
	C674.527100,304.189880 671.045654,326.476135 662.706909,348.189850 
	C657.675476,361.291412 651.026489,373.491028 641.001221,383.665497 
	C619.866089,405.115234 587.323914,403.449158 570.445312,379.063934 
	C570.166443,378.660980 569.809143,378.312225 569.309631,377.729553 
	C568.216248,380.203888 567.476440,382.604034 566.180847,384.652740 
	C563.790527,388.432526 558.512878,389.724335 554.247375,387.899292 
	C549.809204,386.000336 547.501038,381.565948 548.407410,376.415283 
	C550.424438,364.954193 552.507080,353.504608 554.545166,342.047211 
	C554.770508,340.780609 554.880066,339.493378 555.171143,337.216064 
	C547.673096,345.980072 540.990234,354.192413 533.876465,362.012848 
	C523.001465,373.968201 511.826782,385.663910 497.326050,393.416199 
	C490.725098,396.945160 483.731628,398.946045 476.191132,397.424042 
	C462.369324,394.634247 454.112610,381.972351 455.230927,365.558258 
	C456.134857,352.291748 460.060760,339.804108 464.901215,327.537781 
	C473.184448,306.547180 483.954620,286.926086 497.271545,268.713013 
	C501.214172,263.320801 506.396606,261.474640 512.560425,263.014435 
	C518.093445,264.396606 522.398315,268.983032 522.418884,275.303802 
	C522.430359,278.828308 520.938171,282.785095 518.989807,285.818848 
	C506.823792,304.761810 496.139343,324.451324 488.574066,345.679871 
	C485.868866,353.270782 484.297485,361.265747 482.208588,369.076294 
	C482.757019,369.467224 483.305450,369.858185 483.853912,370.249115 
	C488.640991,366.880707 494.065979,364.139130 498.101624,360.032288 
	C513.248291,344.618500 527.925232,328.743591 542.809143,313.070892 
	C559.477112,295.519653 568.953552,275.136505 573.436279,250.910202 
	C582.775146,200.439209 596.406494,150.901657 615.497253,103.139412 
	C622.437378,85.776245 631.397766,69.189781 640.007080,52.544147 
	C642.454590,47.812000 646.464539,43.605598 650.541687,40.058987 
	C658.420959,33.205029 667.392273,31.862013 677.402344,37.417618 
	C679.572083,39.291092 681.217773,40.795067 682.863464,42.299049 
M594.776489,371.043518 
	C595.416199,371.457367 596.055908,371.871185 596.774353,372.289368 
	C596.774353,372.289368 596.835083,372.239105 597.114380,372.858673 
	C598.401489,373.246857 599.688599,373.635040 600.995117,374.001221 
	C600.995117,374.001221 600.983582,374.023163 601.572205,374.377411 
	C602.687805,374.490723 603.803406,374.604034 605.756470,374.880768 
	C606.849121,374.673767 607.941772,374.466736 609.715637,374.325348 
	C617.415649,372.777924 622.765564,367.870697 627.066772,361.746155 
	C635.915649,349.145966 641.399414,335.080994 643.904236,319.955536 
	C645.791016,308.562195 646.510986,297.058044 641.906006,286.021301 
	C638.886108,278.783539 634.694153,277.624969 627.881653,281.749054 
	C627.881653,281.749054 627.802063,281.638977 627.174133,281.650421 
	C626.711487,282.019775 626.248779,282.389130 625.740540,282.779388 
	C625.740540,282.779388 625.722290,282.732635 625.071838,282.810089 
	C623.685303,283.853668 622.298767,284.897217 620.978638,285.986786 
	C620.978638,285.986786 620.964661,285.907257 620.414062,286.033417 
	C620.194702,286.326202 619.975342,286.619019 619.138062,287.128448 
	C601.398743,303.089203 591.165894,323.937042 581.459595,345.114532 
	C581.005920,346.104370 580.864319,347.427948 581.073059,348.499634 
	C582.418701,355.410828 584.547119,361.991577 589.961243,367.661041 
	C590.283752,367.860535 590.606201,368.059998 591.103271,368.619873 
	C591.287231,368.833466 591.519531,368.954193 592.071838,369.643250 
	C592.684631,369.935608 593.297424,370.227966 594.332886,370.840698 
	C594.652649,370.720703 594.972473,370.600708 595.340515,370.553314 
	C595.340515,370.553314 595.301636,370.627655 594.776489,371.043518 
M636.367065,111.875610 
	C620.086548,153.773209 608.017639,196.887985 598.624207,240.846832 
	C619.254578,214.661911 635.931274,186.383270 646.124146,154.808884 
	C656.236389,123.484108 665.453247,91.835106 664.984436,58.297241 
	C651.275818,73.825760 644.199402,92.613792 636.367065,111.875610 
z"/>
<path fill="#1E1411" opacity="1.000000" stroke="none" 
	d="
M738.073242,258.075623 
	C744.411926,256.389496 750.670776,253.773453 757.106812,253.220718 
	C768.690308,252.225891 777.604004,257.958740 784.168518,267.198914 
	C794.103516,281.183258 796.238403,297.222351 795.499939,313.798798 
	C794.493713,336.389465 787.995117,357.290833 775.114624,376.004730 
	C762.323364,394.589142 741.955627,402.283569 722.102905,395.973785 
	C711.777039,392.691956 703.745728,386.129700 697.232178,376.750519 
	C696.674561,378.386475 696.241211,379.536377 695.889343,380.710693 
	C694.142212,386.542694 689.081726,389.876221 683.853027,388.616241 
	C678.154724,387.243103 675.063599,382.206512 676.223938,375.958618 
	C679.502686,358.305420 682.383301,340.563049 686.231689,323.033813 
	C696.242249,277.435791 705.835388,231.719070 717.209045,186.455276 
	C727.572632,145.211502 741.029846,104.833344 760.569153,66.831558 
	C764.493225,59.199783 769.400146,51.915489 774.808655,45.245071 
	C781.472717,37.026096 790.425171,33.080353 801.033081,36.974850 
	C812.209290,41.077972 815.829346,50.749710 816.934814,61.469574 
	C818.951538,81.025345 814.661499,99.845398 809.443665,118.490150 
	C798.984497,155.863510 780.706360,189.569534 760.427429,222.298462 
	C753.158569,234.029861 745.413696,245.466339 737.561890,257.502655 
	C737.255310,258.218292 737.273010,258.468719 737.290649,258.719177 
	C737.551514,258.504639 737.812378,258.290131 738.073242,258.075623 
M758.013245,186.024979 
	C758.013245,186.024979 758.109253,186.102173 758.695679,185.760742 
	C760.745300,181.832489 762.794983,177.904236 765.059814,173.628067 
	C765.059814,173.628067 765.164307,173.232498 765.734070,172.836121 
	C767.572449,168.913498 769.410767,164.990875 771.412781,160.819626 
	C771.412781,160.819626 771.404419,160.522110 772.001160,160.169464 
	C773.030518,157.798172 774.059875,155.426865 775.544312,152.526138 
	C778.777832,144.124344 782.011353,135.722549 785.736389,126.799919 
	C786.191528,125.215469 786.646667,123.631020 787.291382,121.530098 
	C787.312256,121.165955 787.333191,120.801811 787.875854,119.916801 
	C790.945312,105.888390 794.450623,91.934723 796.875061,77.795700 
	C797.880798,71.930519 796.697632,65.659523 796.220032,59.595913 
	C796.123108,58.365974 794.800171,56.349049 793.907471,56.272675 
	C792.572754,56.158470 790.758484,57.121021 789.792175,58.201488 
	C787.960510,60.249584 786.585876,62.706406 784.829773,65.290161 
	C784.829773,65.290161 784.758911,65.636200 784.133667,65.915787 
	C781.685852,70.559471 779.237976,75.203163 776.995422,79.873222 
	C776.995422,79.873222 776.796326,79.815567 776.151917,80.040413 
	C773.738525,85.693314 771.325195,91.346222 768.705933,97.461098 
	C768.667786,97.794067 768.629639,98.127037 768.059570,98.800346 
	C767.752075,99.540680 767.444580,100.281013 766.932495,101.386658 
	C766.932495,101.386658 766.844543,101.796021 766.277649,102.217049 
	C763.291626,110.164040 760.305542,118.111031 757.062927,126.653038 
	C756.928162,127.284981 756.793457,127.916916 756.132996,129.058441 
	C753.645813,136.385880 751.158630,143.713318 748.293945,151.643753 
	C748.208862,152.107300 748.123840,152.570831 747.863281,153.453140 
	C747.863281,153.453140 747.857178,153.907150 747.452332,154.334122 
	C747.349304,154.904938 747.246277,155.475754 746.596619,156.534882 
	C742.836060,169.702499 739.075500,182.870117 735.112000,196.602142 
	C735.087402,196.800552 735.062744,196.998947 734.732117,197.294739 
	C734.732117,197.294739 734.606506,197.585373 734.606506,197.585373 
	C734.606506,197.585373 734.841736,197.797348 734.515076,198.508545 
	C734.410522,199.016388 734.305908,199.524216 733.850037,200.582718 
	C733.702209,201.408005 733.554321,202.233276 733.160767,203.689316 
	C733.108887,204.136261 733.057007,204.583206 732.501526,205.562775 
	C731.272766,211.056564 730.044006,216.550339 728.473755,222.658340 
	C728.389465,223.115631 728.305237,223.572937 727.924011,224.754501 
	C726.807190,229.456284 725.690369,234.158066 724.573486,238.859848 
	C725.073608,239.066025 725.573669,239.272186 726.073730,239.478363 
	C728.759277,235.023972 731.444824,230.569580 734.109009,226.006287 
	C734.109009,226.006287 734.099915,226.116226 734.577393,225.922928 
	C734.715881,225.621429 734.854370,225.319931 735.189453,224.733124 
	C735.189453,224.733124 735.267456,224.395554 735.878235,224.096558 
	C742.337158,213.130402 748.796082,202.164246 755.100159,191.224472 
	C755.100159,191.224472 755.263000,191.217896 755.819702,190.996536 
	C756.130920,190.313538 756.442200,189.630539 756.961609,188.529266 
	C756.961609,188.529266 757.051270,188.070709 757.573608,187.757202 
	C757.758850,187.193542 757.944092,186.629898 758.013245,186.024979 
M764.149414,344.602753 
	C766.036133,338.069519 768.487976,331.638397 769.691101,324.981628 
	C772.142517,311.417572 772.530579,297.827728 766.821411,284.777344 
	C763.311096,276.753265 757.294312,274.508972 749.940857,279.168488 
	C745.365845,282.067413 741.021973,285.640747 737.379517,289.644012 
	C726.256897,301.868103 719.627502,316.821167 712.382080,331.468994 
	C706.285400,343.794312 709.026489,354.325012 716.535400,364.470795 
	C725.240784,376.233154 740.353027,377.869812 750.170776,367.105225 
	C755.861816,360.865387 759.391235,352.653992 764.149414,344.602753 
z"/>
<path fill="#1B1713" opacity="1.000000" stroke="none" 
	d="
M317.417542,359.437988 
	C323.073944,354.750824 328.522278,350.369812 333.778290,345.769073 
	C336.909454,343.028198 340.149475,341.789093 343.546112,344.719849 
	C346.816711,347.541992 346.699860,350.932983 344.297333,354.521027 
	C333.604980,370.489563 321.291290,384.850098 303.556793,393.255768 
	C287.298828,400.961548 271.252350,400.849091 256.777649,389.000244 
	C245.104492,379.444733 242.572327,366.202728 243.669357,351.973572 
	C245.059372,333.944550 252.160614,317.889893 261.535126,302.772186 
	C273.531982,283.425568 288.119873,266.391174 308.493835,255.506256 
	C315.554779,251.733902 323.507599,249.034439 331.375885,247.495407 
	C347.204590,244.399307 359.984222,253.094391 364.278748,268.638000 
	C366.641876,277.191040 366.401550,285.786835 364.366516,294.311249 
	C362.782135,300.947906 356.962646,304.756470 350.565491,303.807190 
	C344.483704,302.904724 340.198303,297.656525 339.953369,291.164337 
	C339.768890,286.274811 339.279510,281.396820 338.891205,276.035522 
	C326.462036,278.934174 317.746063,285.633942 309.845978,293.537598 
	C293.755310,309.635468 280.991974,327.886749 274.459198,349.969910 
	C273.480042,353.279816 273.026764,356.836456 272.925842,360.296326 
	C272.705597,367.847504 277.017151,372.341797 284.587524,373.079559 
	C292.105865,373.812225 298.659790,370.912811 304.965057,367.469910 
	C309.184509,365.165955 313.085175,362.278198 317.417542,359.437988 
z"/>
<path fill="#030303" opacity="1.000000" stroke="none" 
	d="
M416.263245,330.352295 
	C410.367493,348.513947 404.519287,366.299042 398.981171,384.180206 
	C395.606628,395.075836 386.621857,400.578308 377.050323,397.095612 
	C369.440979,394.326843 364.945770,386.889221 366.416443,378.909668 
	C371.685944,350.318359 377.063660,321.746918 382.411316,293.170044 
	C383.571747,286.969055 384.757355,280.772583 385.967377,274.581085 
	C387.523499,266.618439 393.437897,262.480621 401.093475,263.958282 
	C408.020782,265.295319 411.859314,271.866882 409.798737,281.150055 
	C412.150665,279.437408 413.654755,278.596222 414.846466,277.434540 
	C425.197235,267.344513 436.901459,259.337189 451.522156,257.766235 
	C459.115936,256.950287 467.073120,257.915161 474.669159,259.221161 
	C480.892853,260.291168 484.034241,266.563721 483.051880,273.123932 
	C482.243103,278.525238 477.347015,283.251556 471.490570,282.893555 
	C453.187805,281.774597 440.878510,291.519989 431.088806,305.169861 
	C425.508057,312.951141 421.279175,321.701996 416.263245,330.352295 
z"/>
<path fill="#050505" opacity="1.000000" stroke="none" 
	d="
M515.441345,255.798737 
	C506.624359,248.790314 504.420868,240.391861 508.906006,231.998276 
	C513.007996,224.321625 521.888489,220.756058 530.156006,223.466171 
	C539.912415,226.664352 544.921570,237.169983 541.223389,246.677628 
	C537.140076,257.175415 526.809082,260.950562 515.441345,255.798737 
z"/>
<path fill="#EFECE9" opacity="1.000000" stroke="none" 
	d="
M682.947571,41.918373 
	C681.217773,40.795067 679.572083,39.291092 677.747925,37.500084 
	C679.769836,36.256531 681.970215,35.300014 684.170593,34.343494 
	C684.579590,34.543297 684.988586,34.743095 685.397644,34.942894 
	C684.608948,37.141167 683.820312,39.339436 682.947571,41.918373 
z"/>
<path fill="#0FAEC5" opacity="1.000000" stroke="none" 
	d="
M842.012573,268.001129 
	C844.979492,254.040482 847.375122,239.928864 851.017517,226.146744 
	C863.204529,180.033676 878.902161,135.179749 901.233093,92.885887 
	C905.178406,85.413605 910.196655,78.501328 914.831787,71.403816 
	C916.163940,69.364113 917.889160,67.581078 919.434082,65.680290 
	C920.041687,65.955765 920.649292,66.231247 921.256897,66.506721 
	C920.984619,71.334930 921.037109,76.207344 920.387146,80.984177 
	C916.233704,111.509857 906.498535,140.513504 895.923096,169.264816 
	C884.973999,199.032089 871.726685,227.670776 853.506348,253.787674 
	C850.101562,258.668060 846.287903,263.263184 842.326294,267.988770 
	C841.989563,267.987579 842.012573,268.001129 842.012573,268.001129 
z"/>
<path fill="#20A372" opacity="1.000000" stroke="none" 
	d="
M939.373657,327.374115 
	C930.881226,334.728912 922.641479,341.835693 913.780334,349.478455 
	C909.806030,340.822693 909.977844,333.232178 911.303040,325.994202 
	C914.436462,308.880035 923.536682,295.259979 937.939514,285.453247 
	C941.162170,283.259003 945.000549,281.675293 948.783447,280.658661 
	C956.662537,278.541138 962.936462,284.732330 961.590149,292.870972 
	C959.862366,303.315002 953.745605,311.390381 947.222107,319.199158 
	C944.881287,322.001190 942.169006,324.492828 939.373657,327.374115 
z"/>
<path fill="#0FAEC5" opacity="1.000000" stroke="none" 
	d="
M841.980957,267.975647 
	C841.972290,267.963684 841.863770,268.369446 841.863770,268.369446 
	C841.863770,268.369446 841.842957,268.139404 841.927734,268.070251 
	C842.012573,268.001129 841.989563,267.987579 841.980957,267.975647 
z"/>
<path fill="#FCCD09" opacity="1.000000" stroke="none" 
	d="
M591.800110,368.982025 
	C591.519531,368.954193 591.287231,368.833466 591.066284,368.125000 
	C591.032349,367.418030 591.035400,367.205933 590.995972,366.637543 
	C589.204773,362.619659 587.748535,358.777405 585.629089,355.344696 
	C583.276917,351.534912 582.201355,347.649811 584.291138,343.693726 
	C590.345276,332.233002 595.919617,320.406403 603.146667,309.713135 
	C608.992493,301.063446 616.961548,293.848785 624.256104,285.893738 
	C625.012634,285.490906 625.501831,285.191986 626.158813,284.828949 
	C626.387268,284.661957 626.524353,284.510284 626.495239,284.464569 
	C626.372009,284.271240 626.199280,284.109436 626.009583,283.623047 
	C625.890320,283.117523 625.806274,282.925079 625.722290,282.732635 
	C625.722290,282.732635 625.740540,282.779388 626.107361,282.856567 
	C626.916809,282.502167 627.359436,282.070587 627.802063,281.638977 
	C627.802063,281.638977 627.881653,281.749054 628.272400,281.852295 
	C638.109558,282.049683 638.280762,281.995789 641.111511,290.988037 
	C645.478455,304.860016 643.288330,318.688202 638.796875,331.889954 
	C635.499817,341.581024 630.376770,350.708435 625.508301,359.787201 
	C622.217529,365.923889 616.755859,370.010590 609.532593,372.073578 
	C606.389404,372.051544 603.693481,372.055786 600.580322,372.023926 
	C599.053772,372.071594 597.944397,372.155334 596.835083,372.239105 
	C596.835083,372.239105 596.774353,372.289368 596.868042,371.979797 
	C596.971008,371.447876 596.980164,371.225555 596.775879,370.748810 
	C596.139099,370.489807 595.715698,370.485260 595.292297,370.480713 
	C594.972473,370.600708 594.652649,370.720703 594.196533,370.301666 
	C594.043579,369.507355 594.026978,369.252045 593.920532,368.812469 
	C593.487305,368.707825 593.143982,368.787476 592.547729,368.871704 
	C592.129883,368.911591 591.964966,368.946808 591.800110,368.982025 
z"/>
<path fill="#F5CA19" opacity="1.000000" stroke="none" 
	d="
M636.525391,111.522659 
	C644.199402,92.613792 651.275818,73.825760 664.984436,58.297241 
	C665.453247,91.835106 656.236389,123.484108 646.124146,154.808884 
	C635.931274,186.383270 619.254578,214.661911 598.624207,240.846832 
	C608.017639,196.887985 620.086548,153.773209 636.525391,111.522659 
z"/>
<path fill="#DEBC48" opacity="1.000000" stroke="none" 
	d="
M609.979797,372.099854 
	C616.755859,370.010590 622.217529,365.923889 625.508301,359.787201 
	C630.376770,350.708435 635.499817,341.581024 638.796875,331.889954 
	C643.288330,318.688202 645.478455,304.860016 641.111511,290.988037 
	C638.280762,281.995789 638.109558,282.049683 628.206848,281.834503 
	C634.694153,277.624969 638.886108,278.783539 641.906006,286.021301 
	C646.510986,297.058044 645.791016,308.562195 643.904236,319.955536 
	C641.399414,335.080994 635.915649,349.145966 627.066772,361.746155 
	C622.765564,367.870697 617.415649,372.777924 609.418701,374.057861 
	C609.407776,373.226898 609.693787,372.663391 609.979797,372.099854 
z"/>
<path fill="#DFBE44" opacity="1.000000" stroke="none" 
	d="
M623.988770,285.997559 
	C616.961548,293.848785 608.992493,301.063446 603.146667,309.713135 
	C595.919617,320.406403 590.345276,332.233002 584.291138,343.693726 
	C582.201355,347.649811 583.276917,351.534912 585.629089,355.344696 
	C587.748535,358.777405 589.204773,362.619659 590.680542,366.655853 
	C590.198425,367.052795 589.989380,367.075134 589.780396,367.097473 
	C584.547119,361.991577 582.418701,355.410828 581.073059,348.499634 
	C580.864319,347.427948 581.005920,346.104370 581.459595,345.114532 
	C591.165894,323.937042 601.398743,303.089203 619.714478,286.944580 
	C620.515442,286.476227 620.740051,286.191742 620.964661,285.907257 
	C620.964661,285.907257 620.978638,285.986786 621.330200,285.983093 
	C622.450745,285.985413 623.219727,285.991486 623.988770,285.997559 
z"/>
<path fill="#DFBE44" opacity="1.000000" stroke="none" 
	d="
M609.532593,372.073578 
	C609.693787,372.663391 609.407776,373.226898 609.078064,374.025085 
	C607.941772,374.466736 606.849121,374.673767 605.074829,374.582947 
	C603.256714,374.197815 602.120117,374.110474 600.983582,374.023132 
	C600.983582,374.023163 600.995117,374.001221 600.993896,373.684692 
	C600.994263,372.932129 600.995911,372.496094 600.997559,372.060028 
	C603.693481,372.055786 606.389404,372.051544 609.532593,372.073578 
z"/>
<path fill="#DEBC48" opacity="1.000000" stroke="none" 
	d="
M624.256104,285.893707 
	C623.219727,285.991486 622.450745,285.985413 621.296997,285.960083 
	C622.298767,284.897217 623.685303,283.853668 625.397095,282.771362 
	C625.806274,282.925079 625.890320,283.117523 625.990723,283.862305 
	C626.007019,284.414642 625.991028,284.893036 625.991028,284.893036 
	C625.501831,285.191986 625.012634,285.490906 624.256104,285.893707 
z"/>
<path fill="#DEBC48" opacity="1.000000" stroke="none" 
	d="
M600.580322,372.023926 
	C600.995911,372.496094 600.994263,372.932129 600.984131,373.695709 
	C599.688599,373.635040 598.401489,373.246857 596.974731,372.548889 
	C597.944397,372.155334 599.053772,372.071594 600.580322,372.023926 
z"/>
<path fill="#DEBC48" opacity="1.000000" stroke="none" 
	d="
M601.277893,374.200256 
	C602.120117,374.110474 603.256714,374.197815 604.656128,374.501221 
	C603.803406,374.604034 602.687805,374.490723 601.277893,374.200256 
z"/>
<path fill="#DEBC48" opacity="1.000000" stroke="none" 
	d="
M627.488098,281.644714 
	C627.359436,282.070587 626.916809,282.502167 626.130127,282.846100 
	C626.248779,282.389130 626.711487,282.019775 627.488098,281.644714 
z"/>
<path fill="#DEBC48" opacity="1.000000" stroke="none" 
	d="
M594.010376,368.996765 
	C594.026978,369.252045 594.043579,369.507355 593.985229,370.141479 
	C593.297424,370.227966 592.684631,369.935608 591.935974,369.312622 
	C591.964966,368.946808 592.129883,368.911591 592.849670,368.917206 
	C593.606506,368.970978 593.808411,368.983856 594.010376,368.996765 
z"/>
<path fill="#DEBC48" opacity="1.000000" stroke="none" 
	d="
M596.989319,371.003265 
	C596.980164,371.225555 596.971008,371.447876 596.828735,371.977600 
	C596.055908,371.871185 595.416199,371.457367 595.454834,370.963135 
	C596.418518,370.922913 596.703918,370.963074 596.989319,371.003265 
z"/>
<path fill="#DFBE44" opacity="1.000000" stroke="none" 
	d="
M596.775879,370.748810 
	C596.703918,370.963074 596.418518,370.922913 595.717407,370.755188 
	C595.301636,370.627655 595.340515,370.553314 595.316406,370.517029 
	C595.715698,370.485260 596.139099,370.489807 596.775879,370.748810 
z"/>
<path fill="#DEBC48" opacity="1.000000" stroke="none" 
	d="
M589.870850,367.379272 
	C589.989380,367.075134 590.198425,367.052795 590.722961,367.012146 
	C591.035400,367.205933 591.032349,367.418030 590.979004,367.944794 
	C590.606201,368.059998 590.283752,367.860535 589.870850,367.379272 
z"/>
<path fill="#DEBC48" opacity="1.000000" stroke="none" 
	d="
M620.689331,285.970337 
	C620.740051,286.191742 620.515442,286.476227 620.023438,286.836243 
	C619.975342,286.619019 620.194702,286.326202 620.689331,285.970337 
z"/>
<path fill="#E0354A" opacity="1.000000" stroke="none" 
	d="
M764.021362,344.966309 
	C759.391235,352.653992 755.861816,360.865387 750.170776,367.105225 
	C740.353027,377.869812 725.240784,376.233154 716.535400,364.470795 
	C709.026489,354.325012 706.285400,343.794312 712.382080,331.468994 
	C719.627502,316.821167 726.256897,301.868103 737.379517,289.644012 
	C741.021973,285.640747 745.365845,282.067413 749.940857,279.168488 
	C757.294312,274.508972 763.311096,276.753265 766.821411,284.777344 
	C772.530579,297.827728 772.142517,311.417572 769.691101,324.981628 
	C768.487976,331.638397 766.036133,338.069519 764.021362,344.966309 
z"/>
<path fill="#DD364A" opacity="1.000000" stroke="none" 
	d="
M733.005127,205.030151 
	C733.057007,204.583206 733.108887,204.136261 733.563965,203.302383 
	C734.045288,201.954315 734.123291,200.993195 734.201355,200.032059 
	C734.305908,199.524216 734.410522,199.016388 734.734619,198.065186 
	C734.954163,197.621826 735.038086,197.197357 735.038086,197.197357 
	C735.062744,196.998947 735.087402,196.800552 735.564575,196.250183 
	C736.636963,195.177261 737.582031,194.552048 737.826843,193.720657 
	C740.463745,184.764877 743.113770,175.809067 745.484619,166.780884 
	C746.399292,163.297791 746.611145,159.630127 747.143188,156.046570 
	C747.246277,155.475754 747.349304,154.904938 747.839966,154.086563 
	C748.311646,153.748367 748.483093,153.603485 748.465820,153.575790 
	C748.345276,153.381775 748.185791,153.211945 748.038818,153.034363 
	C748.123840,152.570831 748.208862,152.107300 748.760437,151.227890 
	C751.704163,143.390976 754.181458,135.969910 756.658691,128.548859 
	C756.793457,127.916916 756.928162,127.284981 757.515381,126.265869 
	C760.926697,117.851128 763.885620,109.823570 766.844482,101.796013 
	C766.844543,101.796021 766.932495,101.386658 767.379639,101.130821 
	C768.081665,100.069992 768.336548,99.264992 768.591431,98.460007 
	C768.629639,98.127037 768.667786,97.794067 769.134033,97.090500 
	C771.973511,91.085129 774.384949,85.450348 776.796326,79.815567 
	C776.796326,79.815567 776.995422,79.873222 777.239624,79.778481 
	C779.908813,75.001228 782.333862,70.318726 784.758911,65.636208 
	C784.758911,65.636200 784.829773,65.290161 785.276245,65.113678 
	C788.215576,62.738762 790.708435,60.540337 793.555176,58.029819 
	C794.086731,59.156467 794.792297,60.076878 794.955261,61.084984 
	C796.772949,72.331734 795.706848,83.417580 793.108276,94.443336 
	C791.072693,103.080414 789.263733,111.770912 787.354126,120.437668 
	C787.333191,120.801811 787.312256,121.165955 786.849487,121.939041 
	C786.020020,124.005577 785.632446,125.663162 785.244934,127.320755 
	C782.011353,135.722549 778.777832,144.124344 774.991943,152.924408 
	C773.427917,155.722488 772.416138,158.122299 771.404419,160.522110 
	C771.404419,160.522110 771.412781,160.819626 770.984436,161.044006 
	C767.250244,164.576553 764.971252,168.347504 765.164307,173.232498 
	C765.164307,173.232498 765.059814,173.628067 764.622070,173.860413 
	C762.159302,178.095886 760.134277,182.099030 758.109253,186.102173 
	C758.109253,186.102173 758.013245,186.024979 757.788330,186.182632 
	C757.392700,186.917099 757.221985,187.493912 757.051270,188.070709 
	C757.051270,188.070709 756.961609,188.529266 756.547363,188.807922 
	C755.843018,189.796997 755.552979,190.507446 755.263000,191.217896 
	C755.263000,191.217896 755.100159,191.224472 754.830505,191.275803 
	C750.392578,197.842087 746.062073,204.260681 742.113770,210.906342 
	C739.543945,215.231842 737.530273,219.887695 735.267456,224.395538 
	C735.267456,224.395554 735.189453,224.733124 734.856750,224.977142 
	C734.382690,225.519516 734.241333,225.817871 734.099915,226.116241 
	C734.099915,226.116226 734.109009,226.006287 733.782227,226.058578 
	C732.389404,226.919357 731.323486,227.727859 729.966370,228.757172 
	C729.288879,226.922409 728.754944,225.476303 728.220947,224.030212 
	C728.305237,223.572937 728.389465,223.115631 728.912415,222.202393 
	C730.569092,216.174332 731.787109,210.602249 733.005127,205.030151 
z"/>
<path fill="#AA3D48" opacity="1.000000" stroke="none" 
	d="
M787.614990,120.177231 
	C789.263733,111.770912 791.072693,103.080414 793.108276,94.443336 
	C795.706848,83.417580 796.772949,72.331734 794.955261,61.084984 
	C794.792297,60.076878 794.086731,59.156467 793.555176,58.029819 
	C790.708435,60.540337 788.215576,62.738762 785.372070,64.965302 
	C786.585876,62.706406 787.960510,60.249584 789.792175,58.201488 
	C790.758484,57.121021 792.572754,56.158470 793.907471,56.272675 
	C794.800171,56.349049 796.123108,58.365974 796.220032,59.595913 
	C796.697632,65.659523 797.880798,71.930519 796.875061,77.795700 
	C794.450623,91.934723 790.945312,105.888390 787.614990,120.177231 
z"/>
<path fill="#AA3D48" opacity="1.000000" stroke="none" 
	d="
M746.869873,156.290710 
	C746.611145,159.630127 746.399292,163.297791 745.484619,166.780884 
	C743.113770,175.809067 740.463745,184.764877 737.826843,193.720657 
	C737.582031,194.552048 736.636963,195.177261 735.666016,195.967957 
	C739.075500,182.870117 742.836060,169.702499 746.869873,156.290710 
z"/>
<path fill="#AA3D48" opacity="1.000000" stroke="none" 
	d="
M735.572876,224.246048 
	C737.530273,219.887695 739.543945,215.231842 742.113770,210.906342 
	C746.062073,204.260681 750.392578,197.842087 754.907959,191.262619 
	C748.796082,202.164246 742.337158,213.130402 735.572876,224.246048 
z"/>
<path fill="#AA3D48" opacity="1.000000" stroke="none" 
	d="
M728.072510,224.392365 
	C728.754944,225.476303 729.288879,226.922409 729.966370,228.757172 
	C731.323486,227.727859 732.389404,226.919357 733.792847,226.113037 
	C731.444824,230.569580 728.759277,235.023972 726.073730,239.478363 
	C725.573669,239.272186 725.073608,239.066025 724.573486,238.859848 
	C725.690369,234.158066 726.807190,229.456284 728.072510,224.392365 
z"/>
<path fill="#AA3D48" opacity="1.000000" stroke="none" 
	d="
M756.395874,128.803650 
	C754.181458,135.969910 751.704163,143.390976 748.949158,150.926392 
	C751.158630,143.713318 753.645813,136.385880 756.395874,128.803650 
z"/>
<path fill="#AA3D48" opacity="1.000000" stroke="none" 
	d="
M766.561035,102.006531 
	C763.885620,109.823570 760.926697,117.851128 757.643677,125.968353 
	C760.305542,118.111031 763.291626,110.164040 766.561035,102.006531 
z"/>
<path fill="#AA3D48" opacity="1.000000" stroke="none" 
	d="
M776.474121,79.927994 
	C774.384949,85.450348 771.973511,91.085129 769.236938,96.859512 
	C771.325195,91.346222 773.738525,85.693314 776.474121,79.927994 
z"/>
<path fill="#AA3D48" opacity="1.000000" stroke="none" 
	d="
M784.446289,65.776001 
	C782.333862,70.318726 779.908813,75.001228 777.136963,79.765297 
	C779.237976,75.203163 781.685852,70.559471 784.446289,65.776001 
z"/>
<path fill="#AA3D48" opacity="1.000000" stroke="none" 
	d="
M732.753296,205.296463 
	C731.787109,210.602249 730.569092,216.174332 729.083130,221.895264 
	C730.044006,216.550339 731.272766,211.056564 732.753296,205.296463 
z"/>
<path fill="#AA3D48" opacity="1.000000" stroke="none" 
	d="
M765.449219,173.034302 
	C764.971252,168.347504 767.250244,164.576553 770.902588,161.168304 
	C769.410767,164.990875 767.572449,168.913498 765.449219,173.034302 
z"/>
<path fill="#AA3D48" opacity="1.000000" stroke="none" 
	d="
M758.402466,185.931458 
	C760.134277,182.099030 762.159302,178.095886 764.514404,174.034363 
	C762.794983,177.904236 760.745300,181.832489 758.402466,185.931458 
z"/>
<path fill="#AA3D48" opacity="1.000000" stroke="none" 
	d="
M771.702759,160.345795 
	C772.416138,158.122299 773.427917,155.722488 774.764404,153.189133 
	C774.059875,155.426865 773.030518,157.798172 771.702759,160.345795 
z"/>
<path fill="#AA3D48" opacity="1.000000" stroke="none" 
	d="
M785.490662,127.060333 
	C785.632446,125.663162 786.020020,124.005577 786.754639,122.197281 
	C786.646667,123.631020 786.191528,125.215469 785.490662,127.060333 
z"/>
<path fill="#AA3D48" opacity="1.000000" stroke="none" 
	d="
M734.025696,200.307388 
	C734.123291,200.993195 734.045288,201.954315 733.686890,202.987000 
	C733.554321,202.233276 733.702209,201.408005 734.025696,200.307388 
z"/>
<path fill="#AA3D48" opacity="1.000000" stroke="none" 
	d="
M755.541382,191.107208 
	C755.552979,190.507446 755.843018,189.796997 756.443237,189.017059 
	C756.442200,189.630539 756.130920,190.313538 755.541382,191.107208 
z"/>
<path fill="#AA3D48" opacity="1.000000" stroke="none" 
	d="
M768.325439,98.630173 
	C768.336548,99.264992 768.081665,100.069992 767.481934,100.948166 
	C767.444580,100.281013 767.752075,99.540680 768.325439,98.630173 
z"/>
<path fill="#AA3D48" opacity="1.000000" stroke="none" 
	d="
M757.312439,187.913956 
	C757.221985,187.493912 757.392700,186.917099 757.846313,186.203262 
	C757.944092,186.629898 757.758850,187.193542 757.312439,187.913956 
z"/>
<path fill="#FEFEFE" opacity="1.000000" stroke="none" 
	d="
M737.987000,257.984131 
	C737.812378,258.290131 737.551514,258.504639 737.290649,258.719177 
	C737.273010,258.468719 737.255310,258.218292 737.484863,257.836975 
	C737.732117,257.706116 737.900757,257.892670 737.987000,257.984131 
z"/>
<path fill="#AA3D48" opacity="1.000000" stroke="none" 
	d="
M734.885132,197.246048 
	C735.038086,197.197357 734.954163,197.621826 734.897949,197.709595 
	C734.841736,197.797348 734.606506,197.585373 734.606506,197.585373 
	C734.606506,197.585373 734.732117,197.294739 734.885132,197.246048 
z"/>
<path fill="#AA3D48" opacity="1.000000" stroke="none" 
	d="
M747.951050,153.243759 
	C748.185791,153.211945 748.345276,153.381775 748.465820,153.575790 
	C748.483093,153.603485 748.311646,153.748367 748.042358,153.873077 
	C747.857178,153.907150 747.863281,153.453140 747.951050,153.243759 
z"/>
<path fill="#AA3D48" opacity="1.000000" stroke="none" 
	d="
M734.338623,226.019592 
	C734.241333,225.817871 734.382690,225.519516 734.758423,225.119781 
	C734.854370,225.319931 734.715881,225.621429 734.338623,226.019592 
z"/>
<path fill="#DFBE44" opacity="1.000000" stroke="none" 
	d="
M593.920532,368.812469 
	C593.808411,368.983856 593.606506,368.970978 593.102539,368.912598 
	C593.143982,368.787476 593.487305,368.707825 593.920532,368.812469 
z"/>
<path fill="#DFBE44" opacity="1.000000" stroke="none" 
	d="
M626.158813,284.828949 
	C625.991028,284.893036 626.007019,284.414642 626.025879,284.175354 
	C626.199280,284.109436 626.372009,284.271240 626.495239,284.464569 
	C626.524353,284.510284 626.387268,284.661957 626.158813,284.828949 
z"/>
</svg>